<svg width="256" height="256" viewBox="0 0 256 256" fill="none" xmlns="http://www.w3.org/2000/svg">
<rect width="256" height="256" rx="30" fill="#3956E5"/>
<path d="M78.1364 198V58.3636H133.227C143.773 58.3636 152.773 60.25 160.227 64.0227C167.727 67.75 173.432 73.0455 177.341 79.9091C181.295 86.7273 183.273 94.75 183.273 103.977C183.273 113.25 181.273 121.227 177.273 127.909C173.273 134.545 167.477 139.636 159.886 143.182C152.341 146.727 143.205 148.5 132.477 148.5H95.5909V124.773H127.705C133.341 124.773 138.023 124 141.75 122.455C145.477 120.909 148.25 118.591 150.068 115.5C151.932 112.409 152.864 108.568 152.864 103.977C152.864 99.3409 151.932 95.4318 150.068 92.25C148.25 89.0682 145.455 86.6591 141.682 85.0227C137.955 83.3409 133.25 82.5 127.568 82.5H107.659V198H78.1364ZM153.545 134.455L188.25 198H155.659L121.705 134.455H153.545Z" fill="white"/>
</svg>
