<svg width="256" height="256" viewBox="0 0 256 256" fill="none" xmlns="http://www.w3.org/2000/svg">
<rect width="256" height="256" rx="30" fill="#3956E5"/>
<path d="M82.9091 198V58.3636H130.091C141 58.3636 149.955 60.2273 156.955 63.9545C163.955 67.6364 169.136 72.7045 172.5 79.1591C175.864 85.6136 177.545 92.9545 177.545 101.182C177.545 109.409 175.864 116.705 172.5 123.068C169.136 129.432 163.977 134.432 157.023 138.068C150.068 141.659 141.182 143.455 130.364 143.455H92.1818V128.182H129.818C137.273 128.182 143.273 127.091 147.818 124.909C152.409 122.727 155.727 119.636 157.773 115.636C159.864 111.591 160.909 106.773 160.909 101.182C160.909 95.5909 159.864 90.7045 157.773 86.5227C155.682 82.3409 152.341 79.1136 147.75 76.8409C143.159 74.5227 137.091 73.3636 129.545 73.3636H99.8182V198H82.9091ZM148.636 135.273L183 198H163.364L129.545 135.273H148.636Z" fill="white"/>
</svg>
